<svg xmlns="http://www.w3.org/2000/svg"  width="949" height="400" viewBox="0 0 949 400">
    <defs>
        <style>
            .a {
                fill: #1b1310;
            }
        </style>
    </defs>
    <title>icon</title>
    <path class="a"
        d="M52.36,177.16c-12.11,9.63-19,15.68-30.54,25-2.2,1.93-9.9,2.2-12.92,2.48-8.81.55-9.91-.55-8.26-4.4a134,134,0,0,1,11.28-18.44c4.68-6.6,11.55-16.5,19.26-26.4,8.25-10.46,16.23-20.91,28.88-35.21,9.63-10.73,21.46-22.29,31.36-29.71,7.43-5.51,16-8.26,22.28-8.26,6.6,0,9.63,1.38,9.63,2.48-9.08,4.68-31.36,27.51-50.62,50.06-14,16.23-33,41.54-42.08,55.57l.55.55c5-4.4,14-11.83,23.93-19.53,8-6,22.56-16.23,36.31-16.23,8,0,12.38,3.3,11.83,8.8-.28,5-5.5,11.28-9.9,16.78-4.13,5.23-6.61,8.26-8.26,11-1.92,3-2.2,5.22-.55,6.32,1.38.83,4.41,0,6.88-1.37a88.64,88.64,0,0,0,11.28-7.43c3.85-3,11-9.35,13.75-11.83,1.65-1.37,2.48-1.92,3.3-1.1.55.55.28,1.38-.82,2.48-3.3,3-12.65,11.28-18.16,15.4-6,4.4-16.78,11.28-26.95,11.56-13.21.27-14.58-6.61-13.76-11.56.83-4.67,3.3-8,9.35-15.4,3.86-4.68,8-9.63,11-13.48,1.1-1.38,1.1-3-.55-3.58s-4.68.28-8.53,2.2C66.11,166.7,59.24,171.66,52.36,177.16Z"
        transform="translate(0 -62.45)" />
    <path class="a"
        d="M199.53,156.53c8.8,0,10.18,1.1,7.43,4.4-5.51,6.6-9.08,11-14.58,18.15-3.58,4.68-8.26,11.28-9.36,13.48-1.1,1.93-1.1,4.13,0,4.95,1.38,1.1,4.4.55,6.88-.55,2.75-1.1,7.15-4.12,11.55-7.7,5.78-4.67,10.73-9.08,13.48-11.55.83-.83,2.75-2.48,3.58-1.65s-1.38,3-2.48,4.12c-3.3,3.3-11.28,10.18-16.5,14.31-11.83,9.08-18.71,12.1-27.51,12.1-7.15,0-11.28-2.47-12.38-7.15-.83-3.3.83-7.43,2.48-9.63l-.28-.27c-7.15,6.32-20.63,17.05-35.21,17.05-9.9,0-16.51-2.75-16.51-10.73,0-4.67,2.76-10.17,8.81-16.5l-.28-.28s-2.2,1.93-2.47,2.2c-2.48,2.2-3.85,2.75-4.41,2.2-.54-.82.28-1.92,1.93-3.57a80.27,80.27,0,0,1,10.73-8.53A108.43,108.43,0,0,1,144,160.93c6.6-2.75,16.78-5.78,26.68-5.78,9.08,0,10.73,4.95,10.46,8.8C188.25,156.53,188.8,156.53,199.53,156.53Zm-52.27,20.08c-10.18,10.18-15.4,18.15-15.13,21.73.28,1.93,1.65,2.75,3.58,2.75,5.22,0,15.68-6.05,23.1-12.93,8.53-7.7,19.26-20.35,19.54-24.76.27-3.57-1.93-5-5-5C167.89,158.45,157.44,166.7,147.26,176.61Z"
        transform="translate(0 -62.45)" />
    <path class="a"
        d="M270,191.74c7.7-5,14.85-11.56,17.88-14.31,1.37-1.1,2.75-2.2,3.58-1.37.55.55.55,1.1-1.11,2.75a161.11,161.11,0,0,1-17.05,14c-7.15,4.95-13.21,7.15-20.36,9.35a106.27,106.27,0,0,1-27,3.85c-14.85,0-23.65-7.43-23.38-16.23a14.41,14.41,0,0,1,13.76-14.3c6.05,0,8.8,3,8.8,6.32,0,2.48-1.1,4.41-4.13,6.88-2.75,2.2-4.4,4.68-4.4,8,.28,4.4,3.85,6.05,7.15,6.05,6.06,0,11.83-4.13,17.61-13.48,6-9.63,9.9-25.31,12.93-29.71l-.28-.27c-2.2,2.2-8.8,7.42-12.1,9.9-4.4,3.3-10.73,7.7-13.2,9.08-1.38.82-2.76,1.65-3.31.82s.28-1.65,1.93-2.75c3.85-2.47,8-5.5,12.38-8.8,6.6-4.95,12.65-9.9,16.5-13.2a33,33,0,0,1,4.41-6.61,11.87,11.87,0,0,1,8.52-3.57c6.33,0,8,3,.55,8.25-2.47,1.65-4.67,2.48-6.6,4.13-2.2,2.2-1.37,5.5.55,8.25a24.53,24.53,0,0,1-4.95,32.73A62.62,62.62,0,0,0,270,191.74Z"
        transform="translate(0 -62.45)" />
    <path class="a"
        d="M298.56,171.93c-4.13,3.3-8.53,7.15-11.28,9.63-1.93,1.65-3.3,2.47-3.85,1.92-.83-.82,0-1.92,1.65-3.57a169,169,0,0,1,19.8-15.68c7.43-4.68,15.41-8,24.49-8,10.17,0,12.1.83,9.07,4.4-4.67,5.5-10.18,11.83-15.68,18.71a102.08,102.08,0,0,0-10.45,14.85c-1.1,1.93-1.38,3.85-.27,4.68s3,.55,6.32-1.1c6.05-3,12.11-7.43,20.63-14,11.56-9.08,18.71-16.78,28.34-25,2.75-2.2,4.12-3,12.93-3,10.72,0,12.1.55,9.07,4.4-4.4,5.5-9.07,11.56-14.3,19.26-4.13,6-6.33,9.35-8,12.38s-1.92,4.95-.55,6,4.13.55,6.88-.83a64.18,64.18,0,0,0,11-7.42c6.06-4.95,10.46-8.81,14-12.11.83-.82,2.48-1.92,3.3-1.1.83,1.1-.55,2.2-3.3,4.68-4.12,3.85-10.18,9.08-15.68,13.48-5.77,4.67-16.78,12.1-27.23,12.1-13.21,0-14.31-7.15-13.76-11.83.28-3,2.21-6.87,4.41-9.9,1.1-1.65,3.3-4.4,5.22-6.88l-.55-.55c-4.95,4.4-11.55,9.63-15.95,12.93-7.7,5.78-20.91,16-34.66,16-9.36,0-12.38-3.85-12.38-8.81,0-3.57,1.92-7.15,4.67-11.27,6.06-8.81,18.43-22.29,23.66-25C311.49,162.85,306,166.15,298.56,171.93Z"
        transform="translate(0 -62.45)" />
    <path class="a"
        d="M456.18,184.86c0,1.1-.28,1.93-1.1,1.93-.55,0-.83-.55-1.38-1.1-2.75-3.31-6.32-3.86-12.65-3.86-8,0-13.2,2.76-23.93,2.76-3.85,0-8.81-1.11-11-3.86a1.32,1.32,0,0,1-.27-1.65c.27-.27.82,0,1.92.28a11.26,11.26,0,0,0,5.23,0c5.5-1.1,9.63-3.3,14.86-6.6,4.4-2.75,9.35-4.68,14-4.68C452.6,168.08,456.73,175.78,456.18,184.86Z"
        transform="translate(0 -62.45)" />
    <path class="a"
        d="M480.94,206.59c-9.63,0-12.66-4.4-12.66-9.35.28-8,6.33-17.88,14.58-28.61,7.15-9.35,14.58-18.15,26.41-31.36a400.76,400.76,0,0,1,45.11-42.09c16-12.1,47-32.73,74.55-32.73,23.11,0,33,15.68,31.36,30.81-.27,3.57-1.92,6-2.75,5.77-.55-.27.55-2.2.83-5.77.82-11.83-13.21-22.28-36.59-21.73-26.68.55-37.14,8-51.72,21.18-11.55,10.73-29.43,33.28-47.59,56.94-12.38,16.23-25,33.56-28.88,42.64-1.38,3-.55,5,.55,5.77a4.93,4.93,0,0,0,4.4,0c4.13-1.65,8.53-4.4,14.31-8.8,3.85-3,10.17-8.53,13.75-11.83,1.65-1.37,2.48-1.92,3.3-1.1s-.82,2.2-3,4.4a173.85,173.85,0,0,1-15.95,13.48C502.12,200.54,492.49,206.59,480.94,206.59Z"
        transform="translate(0 -62.45)" />
    <path class="a"
        d="M526.32,181.28c-3,2.75-3.85,3.31-4.67,2.48-.55-.82.27-1.93,1.65-3.3a69.87,69.87,0,0,1,9.35-7.7,121,121,0,0,1,10.45-6.61c8.26-4.67,22.84-11,34.66-11,4.41,0,7.43.55,7.43,1.93,0,.55-2.2,1.1-4.4,2.2-6,3-12.65,8.25-19.81,15.13-7.15,7.15-15.68,19.25-15.68,25.31a3.45,3.45,0,0,0,3.58,3.57c6.6,0,18.71-8.8,27.78-17.6-.27-3.31.55-7.43,4.13-12.93,3-4.41,6.33-6.61,9.08-8.81a14.08,14.08,0,0,0-.55-3.57c-.55-2.2-1.65-3-.83-3.85.55-.55,4.13.27,7.16,2.2a11.19,11.19,0,0,1,5.5,9.62c0,6.61-6,16.24-15.41,23.94a5,5,0,0,0,3,.82c3.57,0,7.7-1.92,11-4.4,5.5-4.12,10.73-8.8,13.48-11.28,1.1-1.1,2.2-1.65,3-1.1.55.55.55,1.38-.28,2.2a171.91,171.91,0,0,1-15.13,12.66c-3.57,2.47-7.43,4.67-12.65,4.67a9,9,0,0,1-5.23-1.65c-7.15,5.51-24.76,11.83-35.76,11.83-16.5,0-22.28-6-22.56-13.75-.27-4.95,1.93-10.18,6.6-14.86l-.27-.27C529.9,178,528.52,179.36,526.32,181.28Z"
        transform="translate(0 -62.45)" />
    <path class="a"
        d="M667.44,155.15c9.08,0,11.28,5.78,10.18,9.35l.27.28c7.71-8,8.53-8.25,19.26-8.25,8.53,0,8.8,1.65,6.88,4.12-5,5.78-9.08,11.28-14.58,18.43-4.68,6.06-14.86,19.81-23.11,31.09,6.88-3.58,24.21-14.86,31.91-20.91,5.78-4.4,11-9.08,13.75-11.55,1.1-1.1,2.75-1.93,3.3-1.1.55.55-.55,2.2-2.75,4.12-3.57,3.3-9.62,8.26-16.5,13.48a345.16,345.16,0,0,1-33,21.19c-6.88,10.72-14.31,22.28-22.83,33.55-24.21,31.91-54.47,51.72-77.85,61.35-7.71,3.3-15.68,4.95-21.73,4.95-10.73,0-15.41-4.13-15.41-11.55,0-16.78,27.78-37.14,53.92-52.27,26.13-15.4,40.16-19.53,58-30.81,5.23-6.88,16-23.11,20.36-29.71l-.28-.27c-7.15,6.32-20.08,16-33.83,16-9.91,0-16.51-2.75-16.51-10.73,0-4.67,3.85-11.27,8.8-16.5l-.27-.28s-1.93,1.65-2.48,2.2c-2.2,1.93-3.85,2.75-4.4,2.2-.55-.82.28-1.92,1.93-3.57a83.89,83.89,0,0,1,10.73-8.53,108.09,108.09,0,0,1,19.53-10.45C647.36,158.18,657.54,155.15,667.44,155.15ZM584.36,255c-23.1,15.4-43.18,34.38-44.56,48.69-.28,4.4,1.38,7.15,4.13,7.7,4.4,1.1,11-1.1,17.33-4.68,13.48-7.42,28.61-21.73,50.34-49.51,11.28-14,17.6-23.94,23.1-31.64C621.78,233.55,610,238,584.36,255Zm59.7-78.4c-10.18,10.18-15.41,18.15-15.13,21.73.27,1.93,1.65,2.75,3.57,2.75,5.23,0,15.68-6.05,23.11-12.93,8.53-7.7,19.26-20.35,19.53-24.76.28-3.57-1.92-5-4.95-5C664.69,158.45,654.24,166.7,644.06,176.61Z"
        transform="translate(0 -62.45)" />
    <path class="a"
        d="M373.5,236.52a15.7,15.7,0,0,0-.59,2.34,85,85,0,0,0-1.72,13.95,30.08,30.08,0,0,0,.32,4.73c.56-1.58,1.36-3.64,2-5l1.46,1.15a76.53,76.53,0,0,0-2.44,7.66,6,6,0,0,0-.18,1.54c0,.35.07.84.11,1.19l-2.49.21a41.76,41.76,0,0,1-1.33-11c0-5.07,1.16-11.68,1.58-14.55a15.15,15.15,0,0,0,.24-2.45ZM396,261.73a26,26,0,0,0-5.21-4v.63c0,2.87-1.33,5.67-6,5.67s-7.21-1.93-7.21-5c0-2.91,2.59-5.29,7.14-5.29a15.38,15.38,0,0,1,3.21.32c-.1-2.66-.31-6-.35-8.85-1.11,0-2.2.07-3.32.07-2,0-3.78-.1-5.8-.21v-2.66a54,54,0,0,0,5.87.32c1.09,0,2.17,0,3.25-.07v-4.3a14.74,14.74,0,0,0-.17-2.1h3.18c-.1.66-.17,1.36-.21,2.06,0,.95-.07,2.55-.1,4.16a45,45,0,0,0,6-.8v2.73c-1.89.31-3.92.52-6,.66,0,3.46.28,6.93.42,9.83a23.73,23.73,0,0,1,6.82,4.51Zm-8-5.14a11,11,0,0,0-3.53-.56c-2.59,0-4.37,1.16-4.37,2.77s1.67,2.69,4.16,2.69c2.93,0,3.77-1.43,3.77-3.74C388.08,257.43,388.08,257,388.05,256.59Z"
        transform="translate(0 -62.45)" />
    <path class="a"
        d="M421.13,242.43c0,2,0,4.09.07,5.66a8.52,8.52,0,0,1,1.12,4.45c0,4.68-2.27,9.89-10.32,12.31l-2.41-2.35c4.54-1.05,7.76-2.94,9.2-6a5,5,0,0,1-3,.87,5.58,5.58,0,0,1-5.73-5.8,6.09,6.09,0,0,1,6.12-6.05,7.08,7.08,0,0,1,2.31.38c0-1,0-2.24,0-3.43-5.24,0-11.12.28-15.46.6l-.07-2.73c3.85-.07,10.36-.28,15.5-.35,0-1,0-1.78-.07-2.27,0-.74-.14-1.75-.21-2.17h3.18l-.18,2.17c0,.52,0,1.33,0,2.23h.52c4.2,0,8.47,0,10.15,0l0,2.62c-2-.1-5.11-.17-10.18-.17ZM419.28,250a3.08,3.08,0,0,0-3.08-2.14,3.52,3.52,0,0,0-3.5,3.64,3.33,3.33,0,0,0,3.53,3.43C418.26,255,419.59,253.31,419.28,250Z"
        transform="translate(0 -62.45)" />
    <path class="a"
        d="M464.42,259.15c0,1.11,0,3.81.07,4.19h-3c0-.24,0-1,0-2h-19.1c0,.91,0,1.75.07,2h-3c0-.42.1-3,.1-4.23V241.9c0-.8,0-1.88-.07-2.72,1.36,0,2.31.07,3.11.07h18.78c.77,0,2,0,3.08-.07-.07.87-.07,1.85-.07,2.72Zm-22-17.14v16.61h19.13V242Z"
        transform="translate(0 -62.45)" />
    <path class="a"
        d="M493.86,241a6.7,6.7,0,0,0,2.28-.32l2.31,1.4a11.49,11.49,0,0,0-.81,1.86A34.16,34.16,0,0,1,491.45,256c-3.18,3.88-7.38,7.07-13.92,9.52L475,263.24a27,27,0,0,0,19.55-19.69H482.74a33.7,33.7,0,0,1-8.88,8.6l-2.41-1.78a29.34,29.34,0,0,0,11-11.82,13,13,0,0,0,1.08-2.8l3.22,1.08c-.56.91-1.19,2.1-1.54,2.73s-.52,1-.8,1.47Zm2.28-5.88a52.29,52.29,0,0,1,2.87,4.79l-1.89.84a39.25,39.25,0,0,0-2.84-4.82Zm3.84-1.4a44.42,44.42,0,0,1,2.91,4.76l-1.86.84a36.29,36.29,0,0,0-2.9-4.79Z"
        transform="translate(0 -62.45)" />
</svg>